# xmcd
#
# Track frame offsets: 
#        150
#        10507
#        20720
#        31710
#        42685
#        54422
#        64417
#        74772
#        84275
#        94322
#        106510
#        115590
#        126085
#        137435
#        147527
#        157270
#        167392
#        177565
#        187405
#        196925
#        207587
#        218302
#        228782
#        238895
#        249627
#        260520
#        270640
#        280955
#        290242
#        300265
#        310932
#        320810
#
# Disc length: 4421 seconds
#
# Revision: 3
# Processed by: cddbd v1.5.2PL0 Copyright (c) Steve Scherf et al.
# Submitted via: ExactAudioCopy v0.95b4
#
DISCID=e0114320
DTITLE=Chet Atkins - High Rockin' Swing [CD 3)
DYEAR=2004
DGENRE=Country
TTITLE0=St. Louis Blues
TTITLE1=Nobody's Sweetheart
TTITLE2=Lover Come Back To Me
TTITLE3=Stephen Foster Medley
TTITLE4=Hangover Blues
TTITLE5=Imagination
TTITLE6=Black Mountain Rag
TTITLE7=Guitar Polka
TTITLE8=Dream Train
TTITLE9=Meet Mr. Callaghan
TTITLE10=Chinatown, My Chinatown
TTITLE11=High Rockin' Swing
TTITLE12=Pig Leaf Rag
TTITLE13=Oh By Jingo!
TTITLE14=Hello Ma Baby
TTITLE15=The Bells Of St. Mary's
TTITLE16=Country Gentleman
TTITLE17=Memphis Blues
TTITLE18=Alice Blue Gown
TTITLE19=Twelfth Street Rag
TTITLE20=Peeping Tom
TTITLE21=Three O'Clock In The Morning
TTITLE22=Georgia Camp Meeting
TTITLE23=City Slicker
TTITLE24=Dill Pickle Rag
TTITLE25=Rubber Doll Rag
TTITLE26=Beautiful Ohio (Version 1)
TTITLE27=Kentucky Derby
TTITLE28=Wildwood Flower
TTITLE29=Guitars On Parade
TTITLE30=Simple Simon
TTITLE31=Rubber Doll Rag (Alternate Take)
EXTD=
EXTT0=
EXTT1=
EXTT2=
EXTT3=
EXTT4=
EXTT5=
EXTT6=
EXTT7=
EXTT8=
EXTT9=
EXTT10=
EXTT11=
EXTT12=
EXTT13=
EXTT14=
EXTT15=
EXTT16=
EXTT17=
EXTT18=
EXTT19=
EXTT20=
EXTT21=
EXTT22=
EXTT23=
EXTT24=
EXTT25=
EXTT26=
EXTT27=
EXTT28=
EXTT29=
EXTT30=
EXTT31=
PLAYORDER=
